<?xml version="1.0" encoding="UTF-8" standalone="no"?>
<svg
   xmlns:dc="http://purl.org/dc/elements/1.1/"
   xmlns:cc="http://creativecommons.org/ns#"
   xmlns:rdf="http://www.w3.org/1999/02/22-rdf-syntax-ns#"
   xmlns:svg="http://www.w3.org/2000/svg"
   xmlns="http://www.w3.org/2000/svg"
   viewBox="0 0 193 116"
   height="116"
   width="193"
   xml:space="preserve"
   id="svg2"
   version="1.1"><metadata
     id="metadata8"><rdf:RDF><cc:Work
         rdf:about=""><dc:format>image/svg+xml</dc:format><dc:type
           rdf:resource="http://purl.org/dc/dcmitype/StillImage" /></cc:Work></rdf:RDF></metadata><defs
     id="defs6" /><g
     transform="matrix(1.3333333,0,0,-1.3333333,0,116)"
     id="g10"><g
       transform="scale(0.1)"
       id="g12"><path
         id="path14"
         style="fill:#f03c1f;fill-opacity:1;fill-rule:evenodd;stroke:none"
         d="M 938.711,763.375 H 514.414 V 339.082 h 424.297 v 424.293" /><path
         id="path16"
         style="fill:#ffffff;fill-opacity:1;fill-rule:nonzero;stroke:none"
         d="m 786.207,608.098 c -8.043,8.062 -8.019,21.25 0.07,29.351 l 71.133,71.121 h -35.082 l -53.582,-53.59 c -17.789,-17.792 -17.812,-46.601 -0.074,-64.414 l 16.191,-16.211 c 35.625,-35.617 35.625,-93.386 0,-129.003 -17.812,-17.813 -41.148,-26.719 -64.496,-26.719 -23.347,0 -46.691,8.906 -64.508,26.719 -35.625,35.625 -35.625,93.386 0,129.003 l 64.496,64.493 69.711,69.722 H 755 l -52.18,-52.183 -64.496,-64.492 c -45.238,-45.235 -45.238,-118.836 -0.008,-164.082 21.918,-21.915 51.055,-33.973 82.051,-33.973 30.988,0 60.125,12.058 82.031,33.973 21.918,21.914 33.981,51.042 33.989,82.031 0,30.996 -12.071,60.136 -33.989,82.051 l -16.191,16.203" /><path
         id="path18"
         style="fill:#231f20;fill-opacity:1;fill-rule:nonzero;stroke:none"
         d="m 104.633,224.727 h 32.984 l 21.871,-70.657 c 2.438,-7.808 4.688,-19.961 4.688,-19.961 h 0.351 c 0,0 2.25,12.153 4.688,19.961 l 22.215,70.657 h 32.465 l -43.75,-124.122 h -31.59 l -43.922,124.122" /><path
         id="path20"
         style="fill:#231f20;fill-opacity:1;fill-rule:nonzero;stroke:none"
         d="m 243.688,258.75 h 23.437 l 8.152,-14.238 h 0.352 l 8.156,14.238 h 23.438 l -17.188,-26.035 h -29.168 z m 2.253,-119.434 c 0,0 14.059,-12.851 29.688,-12.851 6.25,0 13.019,2.441 13.019,9.902 0,14.754 -55.898,14.238 -55.898,52.422 0,22.91 19.266,38.02 43.922,38.02 26.73,0 39.926,-14.055 39.926,-14.055 L 303.746,187.93 c 0,0 -12.496,10.925 -27.43,10.925 -6.242,0 -13.191,-2.769 -13.191,-9.714 0,-15.625 55.902,-12.852 55.902,-52.09 0,-20.645 -15.8,-38.5354 -43.75,-38.5354 -29.164,0 -45.304,17.7144 -45.304,17.7144 l 15.968,23.086" /><path
         id="path22"
         style="fill:#231f20;fill-opacity:1;fill-rule:nonzero;stroke:none"
         d="m 398.184,226.809 c 30.726,0 46.527,-17.532 46.527,-17.532 l -14.063,-22.91 c 0,0 -13.89,12.664 -31.074,12.664 -23.781,0 -35.066,-17.527 -35.066,-35.418 0,-18.398 12.152,-37.324 35.066,-37.324 18.746,0 32.981,15.293 32.981,15.293 l 15.629,-22.227 c 0,0 -17.536,-20.8394 -50,-20.8394 -38.887,0 -65.098,27.6054 -65.098,64.4144 0,36.101 27.773,63.879 65.098,63.879" /><path
         id="path24"
         style="fill:#231f20;fill-opacity:1;fill-rule:nonzero;stroke:none"
         d="m 468.316,224.727 h 30.379 v -49.649 h 45.137 v 49.649 h 30.379 V 100.605 h -30.379 v 48.606 h -45.137 v -48.606 h -30.379 v 124.122" /><path
         id="path26"
         style="fill:#231f20;fill-opacity:1;fill-rule:nonzero;stroke:none"
         d="M 628.895,198.691 H 591.23 v 26.036 h 105.723 v -26.036 h -37.676 v -98.086 h -30.382 v 98.086" /><path
         id="path28"
         style="fill:#231f20;fill-opacity:1;fill-rule:nonzero;stroke:none"
         d="m 800.758,165 c 10.59,0 15.797,7.129 15.797,17.02 0,9.894 -5.207,16.671 -15.278,16.671 H 785.824 V 165 Z m -45.313,59.727 h 51.563 c 24.125,0 40.449,-17.707 40.449,-42.707 0,-25 -16.324,-43.055 -40.449,-43.055 h -21.184 v -38.36 h -30.379 v 124.122" /><path
         id="path30"
         style="fill:#231f20;fill-opacity:1;fill-rule:nonzero;stroke:none"
         d="m 910.816,168.477 c 9.719,0 15.793,5.39 15.793,15.285 0,9.363 -3.468,14.929 -18.742,14.929 h -10.246 v -30.214 z m -43.574,56.25 h 43.227 c 12.672,0 18.746,-0.872 24.133,-2.95 14.058,-5.39 22.914,-18.054 22.914,-36.113 0,-13.191 -6.25,-27.598 -18.575,-33.848 v -0.351 c 0,0 1.735,-2.254 4.68,-7.461 l 24.133,-43.399 h -33.852 l -22.047,41.836 h -14.234 v -41.836 h -30.379 v 124.122" /><path
         id="path32"
         style="fill:#231f20;fill-opacity:1;fill-rule:nonzero;stroke:none"
         d="m 1030.6,196.426 c 0,0 -2.78,-13.535 -5.04,-21.348 l -7.11,-24.133 h 24.47 l -6.94,24.133 c -2.25,7.813 -5.03,21.348 -5.03,21.348 z m 19.44,-69.785 h -38.71 l -7.47,-26.036 h -31.247 l 42.187,124.122 h 31.94 l 42.19,-124.122 h -31.25 l -7.64,26.036" /><path
         id="path34"
         style="fill:#231f20;fill-opacity:1;fill-rule:nonzero;stroke:none"
         d="m 1104.55,224.727 h 30.39 v -49.649 h 45.13 v 49.649 h 30.38 V 100.605 h -30.38 v 48.606 h -45.13 v -48.606 h -30.39 v 124.122" /><path
         id="path36"
         style="fill:#231f20;fill-opacity:1;fill-rule:nonzero;stroke:none"
         d="m 1284.05,196.426 c 0,0 -2.77,-13.535 -5.04,-21.348 l -7.1,-24.133 h 24.47 l -6.94,24.133 c -2.26,7.813 -5.04,21.348 -5.04,21.348 z m 19.45,-69.785 h -38.71 l -7.48,-26.036 h -31.24 l 42.19,124.122 h 31.94 l 42.18,-124.122 h -31.24 l -7.64,26.036" /></g></g></svg>