<?xml version="1.0" encoding="UTF-8" standalone="no"?>
<svg
   xmlns:dc="http://purl.org/dc/elements/1.1/"
   xmlns:cc="http://creativecommons.org/ns#"
   xmlns:rdf="http://www.w3.org/1999/02/22-rdf-syntax-ns#"
   xmlns:svg="http://www.w3.org/2000/svg"
   xmlns="http://www.w3.org/2000/svg"
   viewBox="0 0 248.66667 140.66667"
   height="140.66667"
   width="248.66667"
   xml:space="preserve"
   id="svg2"
   version="1.1"><metadata
     id="metadata8"><rdf:RDF><cc:Work
         rdf:about=""><dc:format>image/svg+xml</dc:format><dc:type
           rdf:resource="http://purl.org/dc/dcmitype/StillImage" /></cc:Work></rdf:RDF></metadata><defs
     id="defs6" /><g
     transform="matrix(1.3333333,0,0,-1.3333333,0,140.66667)"
     id="g10"><g
       transform="scale(0.1)"
       id="g12"><path
         id="path14"
         style="fill:#f03c1f;fill-opacity:1;fill-rule:evenodd;stroke:none"
         d="M 1143.71,948.379 H 719.414 V 524.086 h 424.296 v 424.293" /><path
         id="path16"
         style="fill:#ffffff;fill-opacity:1;fill-rule:nonzero;stroke:none"
         d="m 991.207,793.102 c -8.043,8.062 -8.019,21.25 0.07,29.351 l 71.133,71.121 h -35.08 l -53.584,-53.59 c -17.789,-17.793 -17.812,-46.601 -0.074,-64.414 l 16.191,-16.211 c 35.627,-35.617 35.627,-93.386 0,-129.004 -17.812,-17.812 -41.148,-26.718 -64.496,-26.718 -23.347,0 -46.691,8.906 -64.508,26.718 -35.625,35.625 -35.625,93.387 0,129.004 l 64.496,64.493 69.711,69.722 H 960 l -52.18,-52.183 -64.496,-64.493 c -45.238,-45.234 -45.238,-118.835 -0.008,-164.082 21.918,-21.914 51.055,-33.972 82.051,-33.972 30.988,0 60.125,12.058 82.033,33.972 21.92,21.914 33.98,51.043 33.99,82.032 0,30.996 -12.07,60.136 -33.99,82.05 l -16.193,16.204" /><path
         id="path18"
         style="fill:#231f20;fill-opacity:1;fill-rule:nonzero;stroke:none"
         d="m 502.809,420.094 h 21.211 l 14.062,-45.442 c 1.566,-5.019 3.016,-12.832 3.016,-12.832 h 0.226 c 0,0 1.449,7.813 3.012,12.832 l 14.285,45.442 h 20.883 l -28.137,-79.817 h -20.316 l -28.242,79.817" /><path
         id="path20"
         style="fill:#231f20;fill-opacity:1;fill-rule:nonzero;stroke:none"
         d="m 609.613,372.973 -26.343,47.121 h 22.218 l 9.039,-19.199 c 2.567,-5.481 4.797,-11.504 4.797,-11.504 h 0.227 c 0,0 2.23,6.023 4.804,11.504 l 8.93,19.199 h 22.211 l -26.348,-47.121 v -32.696 h -19.535 v 32.696" /><path
         id="path22"
         style="fill:#231f20;fill-opacity:1;fill-rule:nonzero;stroke:none"
         d="m 668.43,365.172 c 0,0 9.035,-8.274 19.086,-8.274 4.015,0 8.375,1.563 8.375,6.368 0,9.492 -35.95,9.16 -35.95,33.711 0,14.746 12.387,24.453 28.243,24.453 17.191,0 25.679,-9.043 25.679,-9.043 l -8.261,-15.965 c 0,0 -8.043,7.039 -17.641,7.039 -4.02,0 -8.484,-1.785 -8.484,-6.262 0,-10.047 35.945,-8.25 35.945,-33.484 0,-13.281 -10.156,-24.785 -28.133,-24.785 -18.754,0 -29.137,11.386 -29.137,11.386 l 10.278,14.856" /><path
         id="path24"
         style="fill:#231f20;fill-opacity:1;fill-rule:nonzero;stroke:none"
         d="m 765.078,356.801 c 11.942,0 21.547,10.262 21.547,23.879 0,13.062 -9.605,22.886 -21.547,22.886 -11.941,0 -21.543,-9.824 -21.543,-22.886 0,-13.617 9.602,-23.879 21.543,-23.879 z m 0,64.629 c 24.117,0 41.754,-17.864 41.754,-40.75 0,-23.45 -17.637,-41.75 -41.754,-41.75 -24.109,0 -41.75,18.3 -41.75,41.75 0,22.886 17.641,40.75 41.75,40.75" /><path
         id="path26"
         style="fill:#231f20;fill-opacity:1;fill-rule:nonzero;stroke:none"
         d="m 820.082,420.094 h 19.543 v -30.813 h 8.035 l 16.52,30.813 h 20.988 l -21.547,-38.188 v -0.222 l 22.774,-41.407 h -21.879 l -16.856,32.364 h -8.035 v -32.364 h -19.543 v 79.817" /><path
         id="path28"
         style="fill:#231f20;fill-opacity:1;fill-rule:nonzero;stroke:none"
         d="m 924.77,401.898 c 0,0 -1.786,-8.71 -3.239,-13.73 l -4.574,-15.527 h 15.738 l -4.465,15.527 c -1.453,5.02 -3.234,13.73 -3.234,13.73 z m 1.121,40.079 h 19.086 l -13.168,-16.758 h -14.961 z m 11.382,-84.961 h -24.89 l -4.805,-16.739 h -20.094 l 27.129,79.817 h 20.539 l 27.129,-79.817 h -20.093 l -4.915,16.739" /><path
         id="path30"
         style="fill:#231f20;fill-opacity:1;fill-rule:nonzero;stroke:none"
         d="m 999.645,441.977 h 15.065 l 5.25,-9.161 h 0.22 l 5.25,9.161 h 15.07 l -11.05,-16.758 h -18.76 z m 1.445,-76.805 c 0,0 9.04,-8.274 19.09,-8.274 4.02,0 8.37,1.563 8.37,6.368 0,9.492 -35.945,9.16 -35.945,33.711 0,14.746 12.395,24.453 28.245,24.453 17.19,0 25.68,-9.043 25.68,-9.043 l -8.26,-15.965 c 0,0 -8.04,7.039 -17.64,7.039 -4.02,0 -8.49,-1.785 -8.49,-6.262 0,-10.047 35.95,-8.25 35.95,-33.484 0,-13.281 -10.16,-24.785 -28.13,-24.785 -18.76,0 -29.14,11.386 -29.14,11.386 l 10.27,14.856" /><path
         id="path32"
         style="fill:#231f20;fill-opacity:1;fill-rule:nonzero;stroke:none"
         d="m 1061.46,420.094 h 19.55 v -30.813 h 8.03 l 16.52,30.813 h 20.99 L 1105,381.906 v -0.222 l 22.78,-41.407 h -21.88 l -16.86,32.364 h -8.03 v -32.364 h -19.55 v 79.817" /><path
         id="path34"
         style="fill:#231f20;fill-opacity:1;fill-rule:nonzero;stroke:none"
         d="m 1173.63,356.801 c 11.95,0 21.55,10.262 21.55,23.879 0,13.062 -9.6,22.886 -21.55,22.886 -11.94,0 -21.54,-9.824 -21.54,-22.886 0,-13.617 9.6,-23.879 21.54,-23.879 z m 0,64.629 c 24.12,0 41.76,-17.864 41.76,-40.75 0,-23.45 -17.64,-41.75 -41.76,-41.75 -24.11,0 -41.75,18.3 -41.75,41.75 0,22.886 17.64,40.75 41.75,40.75" /><path
         id="path36"
         style="fill:#231f20;fill-opacity:1;fill-rule:nonzero;stroke:none"
         d="m 1228.64,420.094 h 19.54 v -63.078 h 32.6 v -16.739 h -52.14 v 79.817" /><path
         id="path38"
         style="fill:#231f20;fill-opacity:1;fill-rule:nonzero;stroke:none"
         d="m 1322.17,401.898 c 0,0 -1.78,-8.71 -3.24,-13.73 l -4.57,-15.527 h 15.74 l -4.47,15.527 c -1.45,5.02 -3.24,13.73 -3.24,13.73 z m 12.5,-44.882 h -24.89 l -4.8,-16.739 h -20.1 l 27.13,79.817 h 20.54 l 27.13,-79.817 h -20.1 l -4.91,16.739" /><path
         id="path40"
         style="fill:#231f20;fill-opacity:1;fill-rule:nonzero;stroke:none"
         d="m 151.117,303.629 c 19.758,0 29.914,-11.281 29.914,-11.281 l -9.043,-14.727 c 0,0 -8.929,8.145 -19.98,8.145 -15.293,0 -22.551,-11.27 -22.551,-22.774 0,-11.836 7.813,-24.004 22.551,-24.004 12.055,0 21.211,9.825 21.211,9.825 l 10.047,-14.29 c 0,0 -11.278,-13.386 -32.149,-13.386 -25.008,0 -41.863,17.746 -41.863,41.406 0,23.223 17.859,41.086 41.863,41.086" /><path
         id="path42"
         style="fill:#231f20;fill-opacity:1;fill-rule:nonzero;stroke:none"
         d="m 195.078,302.289 h 19.531 v -31.926 h 29.024 v 31.926 h 19.535 v -79.824 h -19.535 v 31.262 h -29.024 v -31.262 h -19.531 v 79.824" /><path
         id="path44"
         style="fill:#231f20;fill-opacity:1;fill-rule:nonzero;stroke:none"
         d="m 281.898,302.289 h 50.016 v -16.75 h -30.476 v -14.512 h 24.332 v -16.746 h -24.332 v -15.058 h 32.039 v -16.758 h -51.579 v 79.824" /><path
         id="path46"
         style="fill:#231f20;fill-opacity:1;fill-rule:nonzero;stroke:none"
         d="m 351.648,302.289 h 21.211 l 11.61,-33.711 c 1.785,-5.137 4.023,-13.176 4.023,-13.176 h 0.219 c 0,0 2.234,8.039 4.019,13.176 l 11.61,33.711 h 21.211 l 6.476,-79.824 h -19.539 l -2.453,35.957 c -0.445,6.016 0,13.391 0,13.391 h -0.226 c 0,0 -2.676,-8.372 -4.461,-13.391 l -8.375,-23.113 H 380.23 l -8.375,23.113 c -1.789,5.019 -4.468,13.391 -4.468,13.391 h -0.219 c 0,0 0.445,-7.375 0,-13.391 l -2.457,-35.957 h -19.648 l 6.585,79.824" /><path
         id="path48"
         style="fill:#231f20;fill-opacity:1;fill-rule:nonzero;stroke:none"
         d="m 448.297,302.289 h 19.535 v -79.824 h -19.535 v 79.824" /><path
         id="path50"
         style="fill:#231f20;fill-opacity:1;fill-rule:nonzero;stroke:none"
         d="m 522.965,303.629 c 19.762,0 29.918,-11.281 29.918,-11.281 l -9.043,-14.727 c 0,0 -8.934,8.145 -19.985,8.145 -15.292,0 -22.546,-11.27 -22.546,-22.774 0,-11.836 7.812,-24.004 22.546,-24.004 12.059,0 21.211,9.825 21.211,9.825 l 10.051,-14.29 c 0,0 -11.277,-13.386 -32.152,-13.386 -25.004,0 -41.86,17.746 -41.86,41.406 0,23.223 17.86,41.086 41.86,41.086" /><path
         id="path52"
         style="fill:#231f20;fill-opacity:1;fill-rule:nonzero;stroke:none"
         d="m 566.926,302.289 h 19.535 V 271.48 h 8.035 l 16.52,30.809 h 20.992 l -21.547,-38.184 v -0.214 l 22.769,-41.426 h -21.878 l -16.856,32.383 h -8.035 v -32.383 h -19.535 v 79.824" /><path
         id="path54"
         style="fill:#231f20;fill-opacity:1;fill-rule:nonzero;stroke:none"
         d="m 679.094,238.988 c 11.941,0 21.543,10.274 21.543,23.887 0,13.066 -9.602,22.891 -21.543,22.891 -11.949,0 -21.551,-9.825 -21.551,-22.891 0,-13.613 9.602,-23.887 21.551,-23.887 z m 0,64.641 c 24.109,0 41.746,-17.863 41.746,-40.754 0,-23.437 -17.637,-41.738 -41.746,-41.738 -24.114,0 -41.754,18.301 -41.754,41.738 0,22.891 17.64,40.754 41.754,40.754" /><path
         id="path56"
         style="fill:#231f20;fill-opacity:1;fill-rule:nonzero;stroke:none"
         d="m 732.203,262.875 h 35.047 v -16.738 h -35.047 v 16.738" /><path
         id="path58"
         style="fill:#231f20;fill-opacity:1;fill-rule:nonzero;stroke:none"
         d="m 793.695,285.539 h -24.222 v 16.75 h 67.984 v -16.75 h -24.219 v -63.074 h -19.543 v 63.074" /><path
         id="path60"
         style="fill:#231f20;fill-opacity:1;fill-rule:nonzero;stroke:none"
         d="m 847.262,302.289 h 50.011 v -16.75 h -30.476 v -14.512 h 24.336 v -16.746 h -24.336 v -15.058 h 32.043 v -16.758 h -51.578 v 79.824" /><path
         id="path62"
         style="fill:#231f20;fill-opacity:1;fill-rule:nonzero;stroke:none"
         d="m 949.277,303.629 c 19.754,0 29.911,-11.281 29.911,-11.281 l -9.043,-14.727 c 0,0 -8.93,8.145 -19.977,8.145 -15.297,0 -22.551,-11.27 -22.551,-22.774 0,-11.836 7.813,-24.004 22.551,-24.004 12.055,0 21.211,9.825 21.211,9.825 l 10.047,-14.29 c 0,0 -11.281,-13.386 -32.149,-13.386 -25.007,0 -41.867,17.746 -41.867,41.406 0,23.223 17.863,41.086 41.867,41.086" /><path
         id="path64"
         style="fill:#231f20;fill-opacity:1;fill-rule:nonzero;stroke:none"
         d="m 993.238,302.289 h 19.532 v -31.926 h 29.02 v 31.926 h 19.54 v -79.824 h -19.54 v 31.262 h -29.02 v -31.262 h -19.532 v 79.824" /><path
         id="path66"
         style="fill:#231f20;fill-opacity:1;fill-rule:nonzero;stroke:none"
         d="m 1080.06,302.289 h 19.75 l 22.11,-37.285 c 3.12,-5.254 6.7,-13.621 6.7,-13.621 h 0.22 c 0,0 -0.89,8.601 -0.89,13.621 v 37.285 h 19.54 v -79.824 h -19.65 l -22.22,37.187 c -3.12,5.235 -6.7,13.614 -6.7,13.614 h -0.22 c 0,0 0.89,-8.594 0.89,-13.614 v -37.187 h -19.53 v 79.824" /><path
         id="path68"
         style="fill:#231f20;fill-opacity:1;fill-rule:nonzero;stroke:none"
         d="m 1202.5,238.988 c 11.94,0 21.54,10.274 21.54,23.887 0,13.066 -9.6,22.891 -21.54,22.891 -11.95,0 -21.55,-9.825 -21.55,-22.891 0,-13.613 9.6,-23.887 21.55,-23.887 z m 0,64.641 c 24.11,0 41.74,-17.863 41.74,-40.754 0,-23.437 -17.63,-41.738 -41.74,-41.738 -24.12,0 -41.76,18.301 -41.76,41.738 0,22.891 17.64,40.754 41.76,40.754" /><path
         id="path70"
         style="fill:#231f20;fill-opacity:1;fill-rule:nonzero;stroke:none"
         d="m 1257.5,302.289 h 19.54 v -63.066 h 32.59 v -16.758 h -52.13 v 79.824" /><path
         id="path72"
         style="fill:#231f20;fill-opacity:1;fill-rule:nonzero;stroke:none"
         d="m 1356.05,238.988 c 11.95,0 21.55,10.274 21.55,23.887 0,13.066 -9.6,22.891 -21.55,22.891 -11.94,0 -21.54,-9.825 -21.54,-22.891 0,-13.613 9.6,-23.887 21.54,-23.887 z m 0,64.641 c 24.12,0 41.76,-17.863 41.76,-40.754 0,-23.437 -17.64,-41.738 -41.76,-41.738 -24.11,0 -41.74,18.301 -41.74,41.738 0,22.891 17.63,40.754 41.74,40.754" /><path
         id="path74"
         style="fill:#231f20;fill-opacity:1;fill-rule:nonzero;stroke:none"
         d="m 1447.57,303.629 c 20.42,0 30.7,-10.606 30.7,-10.606 l -9.38,-14.621 c 0,0 -8.15,7.364 -19.43,7.364 -16.74,0 -23.55,-10.723 -23.55,-22.547 0,-15.188 10.49,-24.231 22.88,-24.231 9.38,0 16.19,5.813 16.19,5.813 v 6.14 h -11.27 v 16.629 h 28.58 v -45.105 h -16.3 v 2.246 c 0,1.66 0.11,3.34 0.11,3.34 h -0.23 c 0,0 -7.7,-6.914 -20.98,-6.914 -20.43,0 -39.19,15.293 -39.19,41.406 0,23.223 17.53,41.086 41.87,41.086" /><path
         id="path76"
         style="fill:#231f20;fill-opacity:1;fill-rule:nonzero;stroke:none"
         d="m 1496.99,302.289 h 19.53 v -79.824 h -19.53 v 79.824" /><path
         id="path78"
         style="fill:#231f20;fill-opacity:1;fill-rule:nonzero;stroke:none"
         d="m 1571.66,303.629 c 19.76,0 29.92,-11.281 29.92,-11.281 l -9.05,-14.727 c 0,0 -8.93,8.145 -19.98,8.145 -15.29,0 -22.55,-11.27 -22.55,-22.774 0,-11.836 7.82,-24.004 22.55,-24.004 12.06,0 21.21,9.825 21.21,9.825 l 10.05,-14.29 c 0,0 -11.28,-13.386 -32.15,-13.386 -25.01,0 -41.87,17.746 -41.87,41.406 0,23.223 17.87,41.086 41.87,41.086" /><path
         id="path80"
         style="fill:#231f20;fill-opacity:1;fill-rule:nonzero;stroke:none"
         d="m 1615.62,302.289 h 19.53 V 271.48 h 8.04 l 16.53,30.809 h 20.98 l -21.54,-38.184 v -0.214 l 22.77,-41.426 h -21.88 l -16.86,32.383 h -8.04 v -32.383 h -19.53 v 79.824" /><path
         id="path82"
         style="fill:#231f20;fill-opacity:1;fill-rule:nonzero;stroke:none"
         d="m 1720.31,284.098 c 0,0 -1.79,-8.711 -3.23,-13.735 l -4.58,-15.515 h 15.73 l -4.46,15.515 c -1.46,5.024 -3.24,13.735 -3.24,13.735 z m 1.12,40.078 h 19.09 l -13.18,-16.75 h -14.96 z m 11.38,-84.953 h -24.89 l -4.8,-16.758 h -20.1 l 27.13,79.824 h 20.54 l 27.13,-79.824 h -20.1 l -4.91,16.758" /><path
         id="path84"
         style="fill:#231f20;fill-opacity:1;fill-rule:nonzero;stroke:none"
         d="m 701.285,184.496 h 21.211 l 14.063,-45.437 c 1.562,-5.032 3.015,-12.844 3.015,-12.844 h 0.227 c 0,0 1.449,7.812 3.012,12.844 l 14.289,45.437 h 20.871 l -28.129,-79.824 h -20.317 l -28.242,79.824" /><path
         id="path86"
         style="fill:#231f20;fill-opacity:1;fill-rule:nonzero;stroke:none"
         d="m 841.352,146.078 c 6.808,0 10.156,4.59 10.156,10.945 0,6.36 -3.348,10.715 -9.824,10.715 h -9.93 v -21.66 z m -29.141,38.418 h 33.156 c 15.516,0 26.012,-11.394 26.012,-27.473 0,-16.074 -10.496,-27.683 -26.012,-27.683 h -13.613 v -24.668 h -19.543 v 79.824" /><path
         id="path88"
         style="fill:#231f20;fill-opacity:1;fill-rule:nonzero;stroke:none"
         d="m 910.984,148.324 c 6.25,0 10.164,3.457 10.164,9.824 0,6.016 -2.238,9.59 -12.062,9.59 h -6.582 v -19.414 z m -28.015,36.172 h 27.793 c 8.148,0 12.054,-0.566 15.515,-1.914 9.043,-3.457 14.739,-11.602 14.739,-23.215 0,-8.484 -4.02,-17.742 -11.946,-21.765 v -0.223 c 0,0 1.118,-1.457 3.016,-4.797 l 15.516,-27.91 h -21.766 l -14.18,26.894 h -9.152 v -26.894 h -19.535 v 79.824" /><path
         id="path90"
         style="fill:#231f20;fill-opacity:1;fill-rule:nonzero;stroke:none"
         d="m 986.875,166.293 c 0,0 -1.785,-8.711 -3.238,-13.73 l -4.574,-15.516 h 15.738 l -4.465,15.516 c -1.453,5.019 -3.242,13.73 -3.242,13.73 z m 12.504,-44.871 H 974.48 l -4.796,-16.75 h -20.098 l 27.129,79.824 h 20.543 l 27.122,-79.824 h -20.09 l -4.911,16.75" /><path
         id="path92"
         style="fill:#231f20;fill-opacity:1;fill-rule:nonzero;stroke:none"
         d="m 1028.15,116.957 30.82,43.645 c 3.46,4.91 6.14,7.253 6.14,7.253 v 0.215 c 0,0 -2.57,-0.332 -6.14,-0.332 h -29.36 v 16.758 h 60.28 v -12.058 l -30.92,-43.879 c -3.46,-4.911 -6.14,-7.254 -6.14,-7.254 v -0.227 c 0,0 2.57,0.344 6.14,0.344 h 31.48 v -16.75 h -62.3 v 12.285" /><path
         id="path94"
         style="fill:#231f20;fill-opacity:1;fill-rule:nonzero;stroke:none"
         d="m 1104.49,184.496 h 50.01 v -16.758 h -30.47 v -14.511 h 24.33 v -16.739 h -24.33 v -15.066 h 32.04 v -16.75 h -51.58 v 79.824" /></g></g></svg>