<?xml version="1.0" encoding="UTF-8" standalone="no"?>
<!-- Created with Inkscape (http://www.inkscape.org/) -->

<svg
   width="14.968256mm"
   height="14.96771mm"
   viewBox="0 0 14.968256 14.96771"
   version="1.1"
   id="svg1"
   xml:space="preserve"
   inkscape:version="1.4 (86a8ad7, 2024-10-11)"
   sodipodi:docname="vscht_logo.svg"
   xmlns:inkscape="http://www.inkscape.org/namespaces/inkscape"
   xmlns:sodipodi="http://sodipodi.sourceforge.net/DTD/sodipodi-0.dtd"
   xmlns="http://www.w3.org/2000/svg"
   xmlns:svg="http://www.w3.org/2000/svg"><sodipodi:namedview
     id="namedview1"
     pagecolor="#ffffff"
     bordercolor="#000000"
     borderopacity="0.25"
     inkscape:showpageshadow="2"
     inkscape:pageopacity="0.0"
     inkscape:pagecheckerboard="0"
     inkscape:deskcolor="#d1d1d1"
     inkscape:document-units="mm"
     inkscape:zoom="1.1615876"
     inkscape:cx="240.61897"
     inkscape:cy="79.20195"
     inkscape:window-width="1920"
     inkscape:window-height="2062"
     inkscape:window-x="1911"
     inkscape:window-y="0"
     inkscape:window-maximized="0"
     inkscape:current-layer="g12" /><defs
     id="defs1" /><g
     inkscape:label="Layer 1"
     inkscape:groupmode="layer"
     id="layer1"
     transform="translate(-65.338993,-140.9474)"><g
       transform="matrix(0.03527778,0,0,-0.03527778,61.964038,159.17458)"
       id="g12"><path
         id="path14"
         style="fill:#f03c1f;fill-opacity:1;fill-rule:evenodd;stroke:none"
         d="M 519.965,516.676 H 95.668 V 92.3945 H 519.965 V 516.676" /><path
         id="path16"
         style="fill:#ffffff;fill-opacity:1;fill-rule:nonzero;stroke:none"
         d="m 367.461,361.402 c -8.043,8.067 -8.02,21.25 0.074,29.356 l 71.133,71.113 H 403.586 L 350,408.277 c -17.789,-17.785 -17.812,-46.601 -0.074,-64.414 l 16.191,-16.203 c 35.625,-35.625 35.625,-93.398 0,-129.004 -17.812,-17.812 -41.144,-26.718 -64.496,-26.718 -23.344,0 -46.687,8.906 -64.508,26.718 -35.625,35.625 -35.625,93.379 0,129.004 l 64.496,64.492 69.715,69.719 h -35.07 l -52.176,-52.187 -64.5,-64.493 C 174.34,299.965 174.34,226.352 219.57,181.117 c 21.918,-21.914 51.055,-33.984 82.051,-33.984 30.992,0 60.129,12.07 82.031,33.984 21.918,21.895 33.981,51.035 33.989,82.012 0,31.016 -12.071,60.156 -33.989,82.062 l -16.191,16.211" /></g></g></svg>
